<?xml version="1.0" encoding="UTF-8"?>
<svg id="Layer_1" data-name="Layer 1" xmlns="http://www.w3.org/2000/svg" xmlns:xlink="http://www.w3.org/1999/xlink" viewBox="0 0 1280 1280">
  <defs>
    <style>
      .cls-1 {
        clip-path: url(#clippath);
      }

      .cls-2 {
        fill: #006ffc;
      }

      .cls-3 {
        clip-path: url(#clippath-1);
      }

      .cls-4 {
        clip-path: url(#clippath-2);
      }
    </style>
    <clipPath id="clippath">
      <ellipse class="cls-2" cx="640.56" cy="237.85" rx="39.68" ry="45.13"/>
    </clipPath>
    <clipPath id="clippath-1">
      <path class="cls-2" d="M640.56,582.12c-93.61,0-169.77-76.16-169.77-169.76s76.16-169.77,169.77-169.77,169.77,76.16,169.77,169.77-76.16,169.76-169.77,169.76Zm0-270.73c-55.67,0-100.96,45.3-100.96,100.96s45.29,100.96,100.96,100.96,100.96-45.29,100.96-100.96-45.3-100.96-100.96-100.96Z"/>
    </clipPath>
    <clipPath id="clippath-2">
      <path class="cls-2" d="M746.45,815.82c25.45,36.5,53.59,68.15,77.34,31.28,10.42-14.9,13.59-34.65,12.96-54.77-2.19-63.32-37.45-115.17-90.71-151.82-25.27-17.74-52.61-34.6-81.54-45.74-25.35-8.58-51.85-1.12-74.22,12.05-53.85,28.17-111.47,69.11-133.01,125.66-13.14,35.18-21.15,82.23,.13,114.55,23.75,36.83,52.42,5.35,77.93-31.14-17.73,54.82-64.11,94.82-103.3,53.5-39.1-40.14-39.14-102.3-26.31-153.34,22.68-86.99,109.87-154.1,189.81-186.36,32.65-11,69.07-9.33,100.78,3.98,32.14,14.57,61.65,33.11,89.29,55.12,51.28,39.64,92.57,99.49,96.42,166.1,3.41,39.93-3.2,84.75-33,114.44-39.22,41.27-85.38,1.39-103.23-53.44l.66-.09Z"/>
    </clipPath>
  </defs>
  <path class="cls-2" d="M582.19,1150.73c-40.6,80.92-136.62,118.32-223.82,112.48-71.63-8.6-136.39-61.46-155.76-132.29-22.44-87.95,40.52-176.26,118.74-210.07,79.53-34.3,173.45-8.91,241.22,37.39,73.13,50.97,128.4,118.12,188.5,177.51,52.84,52.44,118.81,97.94,193.52,75.7,67.81-19.67,107.62-102.91,76.94-168.13-21.84-51.27-77.62-87.79-134.23-92.04-61.39-5.2-123.03,20.61-167.83,62.62,52.03-70.66,149.7-108.77,236.17-79.07,66.8,21.48,123.3,85.86,126.07,159.13,5.39,89.33-65.62,173.38-154.48,183.82-85.47,13.48-164.78-36.31-223.06-93.03-32.09-30.3-60.36-62.61-89.2-90.56-56.56-55.72-114.09-110.78-192.62-122.48-35.29-5.77-70.42-.42-100.62,18.3-44.32,26.99-79.07,77.16-69.78,129.68,10.74,52.88,58.78,97.53,111.74,108.91,80.04,13.06,167.26-10.71,218.52-77.86h0Z"/>
  <g>
    <ellipse class="cls-2" cx="640.56" cy="237.85" rx="39.68" ry="45.13"/>
    <g class="cls-1">
      <rect class="cls-2" x="600.88" y="192.72" width="2.56" height="90.26"/>
      <rect class="cls-2" x="603.44" y="192.72" width="2.56" height="90.26"/>
      <rect class="cls-2" x="606" y="192.72" width="2.56" height="90.26"/>
      <rect class="cls-2" x="608.56" y="192.72" width="2.56" height="90.26"/>
      <rect class="cls-2" x="611.12" y="192.72" width="2.56" height="90.26"/>
      <rect class="cls-2" x="613.68" y="192.72" width="2.56" height="90.26"/>
      <rect class="cls-2" x="616.24" y="192.72" width="2.56" height="90.26"/>
      <rect class="cls-2" x="618.8" y="192.72" width="2.56" height="90.26"/>
      <rect class="cls-2" x="621.36" y="192.72" width="2.56" height="90.26"/>
      <rect class="cls-2" x="623.92" y="192.72" width="2.56" height="90.26"/>
      <rect class="cls-2" x="626.48" y="192.72" width="2.56" height="90.26"/>
      <rect class="cls-2" x="629.04" y="192.72" width="2.56" height="90.26"/>
      <rect class="cls-2" x="631.6" y="192.72" width="2.56" height="90.26"/>
      <rect class="cls-2" x="634.16" y="192.72" width="2.56" height="90.26"/>
      <rect class="cls-2" x="636.72" y="192.72" width="2.56" height="90.26"/>
      <rect class="cls-2" x="639.28" y="192.72" width="2.56" height="90.26"/>
      <rect class="cls-2" x="641.85" y="192.72" width="2.56" height="90.26"/>
      <rect class="cls-2" x="644.41" y="192.72" width="2.56" height="90.26"/>
      <rect class="cls-2" x="646.97" y="192.72" width="2.56" height="90.26"/>
      <rect class="cls-2" x="649.53" y="192.72" width="2.56" height="90.26"/>
      <rect class="cls-2" x="652.09" y="192.72" width="2.56" height="90.26"/>
      <rect class="cls-2" x="654.65" y="192.72" width="2.56" height="90.26"/>
      <rect class="cls-2" x="657.21" y="192.72" width="2.56" height="90.26"/>
      <rect class="cls-2" x="659.77" y="192.72" width="2.56" height="90.26"/>
      <rect class="cls-2" x="662.33" y="192.72" width="2.56" height="90.26"/>
      <rect class="cls-2" x="664.89" y="192.72" width="2.56" height="90.26"/>
      <rect class="cls-2" x="667.45" y="192.72" width="2.56" height="90.26"/>
      <rect class="cls-2" x="670.01" y="192.72" width="2.56" height="90.26"/>
      <rect class="cls-2" x="672.57" y="192.72" width="2.56" height="90.26"/>
      <rect class="cls-2" x="675.13" y="192.72" width="2.56" height="90.26"/>
      <rect class="cls-2" x="677.69" y="192.72" width="2.56" height="90.26"/>
    </g>
  </g>
  <g>
    <path class="cls-2" d="M640.56,582.12c-93.61,0-169.77-76.16-169.77-169.76s76.16-169.77,169.77-169.77,169.77,76.16,169.77,169.77-76.16,169.76-169.77,169.76Zm0-270.73c-55.67,0-100.96,45.3-100.96,100.96s45.29,100.96,100.96,100.96,100.96-45.29,100.96-100.96-45.3-100.96-100.96-100.96Z"/>
    <g class="cls-3">
      <rect class="cls-2" x="539.6" y="311.39" width="7.86" height="201.92"/>
      <rect class="cls-2" x="547.47" y="311.39" width="10.95" height="201.92"/>
      <rect class="cls-2" x="558.42" y="311.39" width="10.95" height="201.92"/>
      <rect class="cls-2" x="569.37" y="311.39" width="10.95" height="201.92"/>
      <rect class="cls-2" x="580.33" y="311.39" width="10.95" height="201.92"/>
      <rect class="cls-2" x="591.28" y="311.39" width="10.95" height="201.92"/>
      <rect class="cls-2" x="602.23" y="311.39" width="10.95" height="201.92"/>
      <rect class="cls-2" x="613.18" y="311.39" width="10.95" height="201.92"/>
      <rect class="cls-2" x="624.14" y="311.39" width="10.95" height="201.92"/>
      <rect class="cls-2" x="635.09" y="311.39" width="10.95" height="201.92"/>
      <rect class="cls-2" x="646.04" y="311.39" width="10.95" height="201.92"/>
      <rect class="cls-2" x="657" y="311.39" width="10.95" height="201.92"/>
      <rect class="cls-2" x="667.95" y="311.39" width="10.95" height="201.92"/>
      <rect class="cls-2" x="678.9" y="311.39" width="10.95" height="201.92"/>
      <rect class="cls-2" x="689.85" y="311.39" width="10.95" height="201.92"/>
      <rect class="cls-2" x="700.81" y="311.39" width="10.95" height="201.92"/>
      <rect class="cls-2" x="711.76" y="311.39" width="10.95" height="201.92"/>
      <rect class="cls-2" x="722.71" y="311.39" width="10.95" height="201.92"/>
      <rect class="cls-2" x="733.67" y="311.39" width="7.86" height="201.92"/>
      <rect class="cls-2" x="470.8" y="242.59" width="10.95" height="339.54"/>
      <rect class="cls-2" x="481.75" y="242.59" width="10.95" height="339.54"/>
      <rect class="cls-2" x="492.7" y="242.59" width="10.95" height="339.54"/>
      <rect class="cls-2" x="503.66" y="242.59" width="10.95" height="339.54"/>
      <rect class="cls-2" x="514.61" y="242.59" width="10.95" height="339.54"/>
      <rect class="cls-2" x="525.56" y="242.59" width="10.95" height="339.54"/>
      <rect class="cls-2" x="536.51" y="242.59" width="10.95" height="339.54"/>
      <rect class="cls-2" x="547.47" y="242.59" width="10.95" height="339.54"/>
      <rect class="cls-2" x="558.42" y="242.59" width="10.95" height="339.54"/>
      <rect class="cls-2" x="569.37" y="242.59" width="10.95" height="339.54"/>
      <rect class="cls-2" x="580.33" y="242.59" width="10.95" height="339.54"/>
      <rect class="cls-2" x="591.28" y="242.59" width="10.95" height="339.54"/>
      <rect class="cls-2" x="602.23" y="242.59" width="10.95" height="339.54"/>
      <rect class="cls-2" x="613.18" y="242.59" width="10.95" height="339.54"/>
      <rect class="cls-2" x="624.14" y="242.59" width="10.95" height="339.54"/>
      <rect class="cls-2" x="635.09" y="242.59" width="10.95" height="339.54"/>
      <rect class="cls-2" x="646.04" y="242.59" width="10.95" height="339.54"/>
      <rect class="cls-2" x="657" y="242.59" width="10.95" height="339.54"/>
      <rect class="cls-2" x="667.95" y="242.59" width="10.95" height="339.54"/>
      <rect class="cls-2" x="678.9" y="242.59" width="10.95" height="339.54"/>
      <rect class="cls-2" x="689.85" y="242.59" width="10.95" height="339.54"/>
      <rect class="cls-2" x="700.81" y="242.59" width="10.95" height="339.54"/>
      <rect class="cls-2" x="711.76" y="242.59" width="10.95" height="339.54"/>
      <rect class="cls-2" x="722.71" y="242.59" width="10.95" height="339.54"/>
      <rect class="cls-2" x="733.67" y="242.59" width="10.95" height="339.54"/>
      <rect class="cls-2" x="744.62" y="242.59" width="10.95" height="339.54"/>
      <rect class="cls-2" x="755.57" y="242.59" width="10.95" height="339.54"/>
      <rect class="cls-2" x="766.52" y="242.59" width="10.95" height="339.54"/>
      <rect class="cls-2" x="777.48" y="242.59" width="10.95" height="339.54"/>
      <rect class="cls-2" x="788.43" y="242.59" width="10.95" height="339.54"/>
      <rect class="cls-2" x="799.38" y="242.59" width="10.95" height="339.54"/>
    </g>
  </g>
  <path class="cls-2" d="M841.37,572.63c37.22-49.58,67.8-106.03,79.2-167.17,31.57-158.58-96.59-319.41-253.01-336.04-58.92-5-117.43,7.98-167.25,40.87-68.97,45.38-120.9,119.75-140.63,200.12-13.55,57.07-7.76,117.39,12.16,173.85,10.2,30.42,24.44,59.39,40.65,87.43,.93,1.63,.36,3.71-1.27,4.64-1.42,.81-3.17,.48-4.22-.68-21.88-24.39-40.99-51.32-56.3-80.38-15.32-29-27.45-59.97-34.01-92.36-20.94-97.95,13.21-200.84,74.44-277.95C498.68-13.23,694.61-42.44,834.1,65.7c105.21,78.55,165.93,223.59,121.93,351.28-15.8,46.94-42.35,89.53-75.16,126.28-10.89,12.25-22.53,23.82-34.97,34.55-3.6,2.74-7.6-2.03-4.52-5.19h0Z"/>
  <g>
    <path class="cls-2" d="M746.45,815.82c25.45,36.5,53.59,68.15,77.34,31.28,10.42-14.9,13.59-34.65,12.96-54.77-2.19-63.32-37.45-115.17-90.71-151.82-25.27-17.74-52.61-34.6-81.54-45.74-25.35-8.58-51.85-1.12-74.22,12.05-53.85,28.17-111.47,69.11-133.01,125.66-13.14,35.18-21.15,82.23,.13,114.55,23.75,36.83,52.42,5.35,77.93-31.14-17.73,54.82-64.11,94.82-103.3,53.5-39.1-40.14-39.14-102.3-26.31-153.34,22.68-86.99,109.87-154.1,189.81-186.36,32.65-11,69.07-9.33,100.78,3.98,32.14,14.57,61.65,33.11,89.29,55.12,51.28,39.64,92.57,99.49,96.42,166.1,3.41,39.93-3.2,84.75-33,114.44-39.22,41.27-85.38,1.39-103.23-53.44l.66-.09Z"/>
    <g class="cls-4">
      <polygon class="cls-2" points="449.45 518.71 392.91 723.26 392.91 518.71 449.45 518.71"/>
      <polygon class="cls-2" points="465.67 518.71 392.91 781.95 392.91 723.26 449.45 518.71 465.67 518.71"/>
      <polygon class="cls-2" points="481.89 518.71 392.91 840.64 392.91 781.95 465.67 518.71 481.89 518.71"/>
      <polygon class="cls-2" points="498.12 518.71 392.91 899.33 392.91 840.64 481.89 518.71 498.12 518.71"/>
      <polygon class="cls-2" points="514.34 518.71 405.98 910.73 392.91 910.73 392.91 899.33 498.12 518.71 514.34 518.71"/>
      <polygon class="cls-2" points="530.56 518.71 422.2 910.73 405.98 910.73 514.34 518.71 530.56 518.71"/>
      <polygon class="cls-2" points="546.79 518.71 438.42 910.73 422.2 910.73 530.56 518.71 546.79 518.71"/>
      <polygon class="cls-2" points="563.01 518.71 454.65 910.73 438.42 910.73 546.79 518.71 563.01 518.71"/>
      <polygon class="cls-2" points="579.23 518.71 470.87 910.73 454.65 910.73 563.01 518.71 579.23 518.71"/>
      <polygon class="cls-2" points="595.46 518.71 487.09 910.73 470.87 910.73 579.23 518.71 595.46 518.71"/>
      <polygon class="cls-2" points="611.68 518.71 503.32 910.73 487.09 910.73 595.46 518.71 611.68 518.71"/>
      <polygon class="cls-2" points="627.9 518.71 519.54 910.73 503.32 910.73 611.68 518.71 627.9 518.71"/>
      <polygon class="cls-2" points="644.13 518.71 535.76 910.73 519.54 910.73 627.9 518.71 644.13 518.71"/>
      <polygon class="cls-2" points="660.35 518.71 551.99 910.73 535.76 910.73 644.13 518.71 660.35 518.71"/>
      <polygon class="cls-2" points="676.57 518.71 568.21 910.73 551.99 910.73 660.35 518.71 676.57 518.71"/>
      <polygon class="cls-2" points="692.79 518.71 584.43 910.73 568.21 910.73 676.57 518.71 692.79 518.71"/>
      <polygon class="cls-2" points="709.02 518.71 600.66 910.73 584.43 910.73 692.79 518.71 709.02 518.71"/>
      <polygon class="cls-2" points="725.24 518.71 616.88 910.73 600.66 910.73 709.02 518.71 725.24 518.71"/>
      <polygon class="cls-2" points="741.46 518.71 633.1 910.73 616.88 910.73 725.24 518.71 741.46 518.71"/>
      <polygon class="cls-2" points="757.69 518.71 649.32 910.73 633.1 910.73 741.46 518.71 757.69 518.71"/>
      <polygon class="cls-2" points="773.91 518.71 665.55 910.73 649.32 910.73 757.69 518.71 773.91 518.71"/>
      <polygon class="cls-2" points="790.13 518.71 681.77 910.73 665.55 910.73 773.91 518.71 790.13 518.71"/>
      <polygon class="cls-2" points="806.36 518.71 697.99 910.73 681.77 910.73 790.13 518.71 806.36 518.71"/>
      <polygon class="cls-2" points="822.58 518.71 714.22 910.73 697.99 910.73 806.36 518.71 822.58 518.71"/>
      <polygon class="cls-2" points="838.8 518.71 730.44 910.73 714.22 910.73 822.58 518.71 838.8 518.71"/>
      <polygon class="cls-2" points="855.03 518.71 746.66 910.73 730.44 910.73 838.8 518.71 855.03 518.71"/>
      <polygon class="cls-2" points="861.19 518.71 870.54 521.3 762.89 910.73 746.66 910.73 855.03 518.71 861.19 518.71"/>
      <polygon class="cls-2" points="870.54 521.3 885.44 525.41 885.44 526.09 779.11 910.73 762.89 910.73 870.54 521.3"/>
      <polygon class="cls-2" points="885.44 584.78 795.33 910.73 779.11 910.73 885.44 526.09 885.44 584.78"/>
      <polygon class="cls-2" points="885.44 643.47 811.56 910.73 795.33 910.73 885.44 584.78 885.44 643.47"/>
      <polygon class="cls-2" points="885.44 702.16 827.78 910.73 811.56 910.73 885.44 643.47 885.44 702.16"/>
      <polygon class="cls-2" points="885.44 760.85 844 910.73 827.78 910.73 885.44 702.16 885.44 760.85"/>
      <polygon class="cls-2" points="844 910.73 885.44 760.85 885.44 910.73 844 910.73"/>
    </g>
  </g>
</svg>