<?xml version="1.0" encoding="UTF-8"?>
<svg id="Layer_1" data-name="Layer 1" xmlns="http://www.w3.org/2000/svg" xmlns:xlink="http://www.w3.org/1999/xlink" viewBox="0 0 1280 312.62">
  <defs>
    <style>
      .cls-1 {
        clip-path: url(#clippath);
      }

      .cls-2 {
        fill: #006ffc;
      }

      .cls-3 {
        fill: #000e21;
      }

      .cls-4 {
        clip-path: url(#clippath-1);
      }

      .cls-5 {
        clip-path: url(#clippath-2);
      }
    </style>
    <clipPath id="clippath">
      <ellipse class="cls-2" cx="108.09" cy="58.09" rx="9.69" ry="11.02"/>
    </clipPath>
    <clipPath id="clippath-1">
      <path class="cls-2" d="M108.09,142.18c-22.86,0-41.46-18.6-41.46-41.46s18.6-41.46,41.46-41.46,41.46,18.6,41.46,41.46-18.6,41.46-41.46,41.46Zm0-66.12c-13.6,0-24.66,11.06-24.66,24.66s11.06,24.66,24.66,24.66,24.66-11.06,24.66-24.66-11.06-24.66-24.66-24.66Z"/>
    </clipPath>
    <clipPath id="clippath-2">
      <path class="cls-2" d="M133.95,199.25c6.22,8.92,13.09,16.64,18.89,7.64,2.54-3.64,3.32-8.46,3.17-13.38-.54-15.47-9.15-28.13-22.15-37.08-6.17-4.33-12.85-8.45-19.91-11.17-6.19-2.1-12.66-.27-18.13,2.94-13.15,6.88-27.23,16.88-32.49,30.69-3.21,8.59-5.17,20.08,.03,27.98,5.8,9,12.8,1.31,19.03-7.6-4.33,13.39-15.66,23.16-25.23,13.07-9.55-9.8-9.56-24.99-6.43-37.45,5.54-21.25,26.84-37.64,46.36-45.52,7.97-2.69,16.87-2.28,24.62,.97,7.85,3.56,15.06,8.09,21.81,13.46,12.52,9.68,22.61,24.3,23.55,40.57,.83,9.75-.78,20.7-8.06,27.95-9.58,10.08-20.85,.34-25.21-13.05l.16-.02Z"/>
    </clipPath>
  </defs>
  <g>
    <path class="cls-2" d="M93.83,281.05c-9.92,19.76-33.37,28.9-54.66,27.47-17.5-2.1-33.31-15.01-38.04-32.31-5.48-21.48,9.9-43.05,29-51.31,19.42-8.38,42.36-2.18,58.91,9.13,17.86,12.45,31.36,28.85,46.04,43.35,12.91,12.81,29.02,23.92,47.27,18.49,16.56-4.8,26.28-25.13,18.79-41.06-5.33-12.52-18.96-21.44-32.78-22.48-14.99-1.27-30.05,5.03-40.99,15.29,12.71-17.26,36.56-26.56,57.68-19.31,16.31,5.25,30.12,20.97,30.79,38.86,1.32,21.82-16.03,42.35-37.73,44.9-20.87,3.29-40.25-8.87-54.48-22.72-7.84-7.4-14.74-15.29-21.79-22.12-13.81-13.61-27.86-27.06-47.05-29.91-8.62-1.41-17.2-.1-24.58,4.47-10.83,6.59-19.31,18.85-17.04,31.67,2.62,12.92,14.36,23.82,27.29,26.6,19.55,3.19,40.85-2.62,53.37-19.02h0Z"/>
    <g>
      <ellipse class="cls-2" cx="108.09" cy="58.09" rx="9.69" ry="11.02"/>
      <g class="cls-1">
        <rect class="cls-2" x="98.4" y="47.07" width=".63" height="22.05"/>
        <rect class="cls-2" x="99.02" y="47.07" width=".63" height="22.05"/>
        <rect class="cls-2" x="99.65" y="47.07" width=".63" height="22.05"/>
        <rect class="cls-2" x="100.27" y="47.07" width=".63" height="22.05"/>
        <rect class="cls-2" x="100.9" y="47.07" width=".63" height="22.05"/>
        <rect class="cls-2" x="101.52" y="47.07" width=".63" height="22.05"/>
        <rect class="cls-2" x="102.15" y="47.07" width=".63" height="22.05"/>
        <rect class="cls-2" x="102.77" y="47.07" width=".63" height="22.05"/>
        <rect class="cls-2" x="103.4" y="47.07" width=".63" height="22.05"/>
        <rect class="cls-2" x="104.02" y="47.07" width=".63" height="22.05"/>
        <rect class="cls-2" x="104.65" y="47.07" width=".63" height="22.05"/>
        <rect class="cls-2" x="105.27" y="47.07" width=".63" height="22.05"/>
        <rect class="cls-2" x="105.9" y="47.07" width=".63" height="22.05"/>
        <rect class="cls-2" x="106.52" y="47.07" width=".63" height="22.05"/>
        <rect class="cls-2" x="107.15" y="47.07" width=".63" height="22.05"/>
        <rect class="cls-2" x="107.78" y="47.07" width=".63" height="22.05"/>
        <rect class="cls-2" x="108.4" y="47.07" width=".63" height="22.05"/>
        <rect class="cls-2" x="109.03" y="47.07" width=".63" height="22.05"/>
        <rect class="cls-2" x="109.65" y="47.07" width=".63" height="22.05"/>
        <rect class="cls-2" x="110.28" y="47.07" width=".63" height="22.05"/>
        <rect class="cls-2" x="110.9" y="47.07" width=".63" height="22.05"/>
        <rect class="cls-2" x="111.53" y="47.07" width=".63" height="22.05"/>
        <rect class="cls-2" x="112.15" y="47.07" width=".63" height="22.05"/>
        <rect class="cls-2" x="112.78" y="47.07" width=".63" height="22.05"/>
        <rect class="cls-2" x="113.4" y="47.07" width=".63" height="22.05"/>
        <rect class="cls-2" x="114.03" y="47.07" width=".63" height="22.05"/>
        <rect class="cls-2" x="114.65" y="47.07" width=".63" height="22.05"/>
        <rect class="cls-2" x="115.28" y="47.07" width=".63" height="22.05"/>
        <rect class="cls-2" x="115.9" y="47.07" width=".63" height="22.05"/>
        <rect class="cls-2" x="116.53" y="47.07" width=".63" height="22.05"/>
        <rect class="cls-2" x="117.15" y="47.07" width=".63" height="22.05"/>
      </g>
    </g>
    <g>
      <path class="cls-2" d="M108.09,142.18c-22.86,0-41.46-18.6-41.46-41.46s18.6-41.46,41.46-41.46,41.46,18.6,41.46,41.46-18.6,41.46-41.46,41.46Zm0-66.12c-13.6,0-24.66,11.06-24.66,24.66s11.06,24.66,24.66,24.66,24.66-11.06,24.66-24.66-11.06-24.66-24.66-24.66Z"/>
      <g class="cls-4">
        <rect class="cls-2" x="83.43" y="76.05" width="1.92" height="49.32"/>
        <rect class="cls-2" x="85.35" y="76.05" width="2.68" height="49.32"/>
        <rect class="cls-2" x="88.02" y="76.05" width="2.68" height="49.32"/>
        <rect class="cls-2" x="90.7" y="76.05" width="2.68" height="49.32"/>
        <rect class="cls-2" x="93.38" y="76.05" width="2.68" height="49.32"/>
        <rect class="cls-2" x="96.05" y="76.05" width="2.68" height="49.32"/>
        <rect class="cls-2" x="98.73" y="76.05" width="2.68" height="49.32"/>
        <rect class="cls-2" x="101.4" y="76.05" width="2.68" height="49.32"/>
        <rect class="cls-2" x="104.08" y="76.05" width="2.68" height="49.32"/>
        <rect class="cls-2" x="106.75" y="76.05" width="2.68" height="49.32"/>
        <rect class="cls-2" x="109.43" y="76.05" width="2.68" height="49.32"/>
        <rect class="cls-2" x="112.1" y="76.05" width="2.68" height="49.32"/>
        <rect class="cls-2" x="114.78" y="76.05" width="2.68" height="49.32"/>
        <rect class="cls-2" x="117.45" y="76.05" width="2.68" height="49.32"/>
        <rect class="cls-2" x="120.13" y="76.05" width="2.68" height="49.32"/>
        <rect class="cls-2" x="122.8" y="76.05" width="2.68" height="49.32"/>
        <rect class="cls-2" x="125.48" y="76.05" width="2.68" height="49.32"/>
        <rect class="cls-2" x="128.15" y="76.05" width="2.68" height="49.32"/>
        <rect class="cls-2" x="130.83" y="76.05" width="1.92" height="49.32"/>
        <rect class="cls-2" x="66.62" y="59.25" width="2.68" height="82.93"/>
        <rect class="cls-2" x="69.3" y="59.25" width="2.68" height="82.93"/>
        <rect class="cls-2" x="71.97" y="59.25" width="2.68" height="82.93"/>
        <rect class="cls-2" x="74.65" y="59.25" width="2.68" height="82.93"/>
        <rect class="cls-2" x="77.32" y="59.25" width="2.68" height="82.93"/>
        <rect class="cls-2" x="80" y="59.25" width="2.68" height="82.93"/>
        <rect class="cls-2" x="82.67" y="59.25" width="2.68" height="82.93"/>
        <rect class="cls-2" x="85.35" y="59.25" width="2.68" height="82.93"/>
        <rect class="cls-2" x="88.02" y="59.25" width="2.68" height="82.93"/>
        <rect class="cls-2" x="90.7" y="59.25" width="2.68" height="82.93"/>
        <rect class="cls-2" x="93.38" y="59.25" width="2.68" height="82.93"/>
        <rect class="cls-2" x="96.05" y="59.25" width="2.68" height="82.93"/>
        <rect class="cls-2" x="98.73" y="59.25" width="2.68" height="82.93"/>
        <rect class="cls-2" x="101.4" y="59.25" width="2.68" height="82.93"/>
        <rect class="cls-2" x="104.08" y="59.25" width="2.68" height="82.93"/>
        <rect class="cls-2" x="106.75" y="59.25" width="2.68" height="82.93"/>
        <rect class="cls-2" x="109.43" y="59.25" width="2.68" height="82.93"/>
        <rect class="cls-2" x="112.1" y="59.25" width="2.68" height="82.93"/>
        <rect class="cls-2" x="114.78" y="59.25" width="2.68" height="82.93"/>
        <rect class="cls-2" x="117.45" y="59.25" width="2.68" height="82.93"/>
        <rect class="cls-2" x="120.13" y="59.25" width="2.68" height="82.93"/>
        <rect class="cls-2" x="122.8" y="59.25" width="2.68" height="82.93"/>
        <rect class="cls-2" x="125.48" y="59.25" width="2.68" height="82.93"/>
        <rect class="cls-2" x="128.15" y="59.25" width="2.68" height="82.93"/>
        <rect class="cls-2" x="130.83" y="59.25" width="2.68" height="82.93"/>
        <rect class="cls-2" x="133.5" y="59.25" width="2.68" height="82.93"/>
        <rect class="cls-2" x="136.18" y="59.25" width="2.68" height="82.93"/>
        <rect class="cls-2" x="138.85" y="59.25" width="2.68" height="82.93"/>
        <rect class="cls-2" x="141.53" y="59.25" width="2.68" height="82.93"/>
        <rect class="cls-2" x="144.2" y="59.25" width="2.68" height="82.93"/>
        <rect class="cls-2" x="146.88" y="59.25" width="2.68" height="82.93"/>
      </g>
    </g>
    <path class="cls-2" d="M157.13,139.86c9.09-12.11,16.56-25.9,19.34-40.83,7.71-38.73-23.59-78.01-61.8-82.07-14.39-1.22-28.68,1.95-40.85,9.98-16.84,11.08-29.53,29.25-34.35,48.88-3.31,13.94-1.9,28.67,2.97,42.46,2.49,7.43,5.97,14.51,9.93,21.35,.23,.4,.09,.91-.31,1.13-.35,.2-.77,.12-1.03-.17-5.34-5.96-10.01-12.54-13.75-19.63-3.74-7.08-6.7-14.65-8.31-22.56-5.11-23.92,3.23-49.05,18.18-67.89C73.43-3.23,121.29-10.37,155.36,16.05c25.7,19.18,40.53,54.61,29.78,85.8-3.86,11.47-10.34,21.87-18.36,30.84-2.66,2.99-5.5,5.82-8.54,8.44-.88,.67-1.86-.5-1.1-1.27h0Z"/>
    <g>
      <path class="cls-2" d="M133.95,199.25c6.22,8.92,13.09,16.64,18.89,7.64,2.54-3.64,3.32-8.46,3.17-13.38-.54-15.47-9.15-28.13-22.15-37.08-6.17-4.33-12.85-8.45-19.91-11.17-6.19-2.1-12.66-.27-18.13,2.94-13.15,6.88-27.23,16.88-32.49,30.69-3.21,8.59-5.17,20.08,.03,27.98,5.8,9,12.8,1.31,19.03-7.6-4.33,13.39-15.66,23.16-25.23,13.07-9.55-9.8-9.56-24.99-6.43-37.45,5.54-21.25,26.84-37.64,46.36-45.52,7.97-2.69,16.87-2.28,24.62,.97,7.85,3.56,15.06,8.09,21.81,13.46,12.52,9.68,22.61,24.3,23.55,40.57,.83,9.75-.78,20.7-8.06,27.95-9.58,10.08-20.85,.34-25.21-13.05l.16-.02Z"/>
      <g class="cls-5">
        <polygon class="cls-2" points="61.41 126.69 47.6 176.65 47.6 126.69 61.41 126.69"/>
        <polygon class="cls-2" points="65.37 126.69 47.6 190.98 47.6 176.65 61.41 126.69 65.37 126.69"/>
        <polygon class="cls-2" points="69.33 126.69 47.6 205.31 47.6 190.98 65.37 126.69 69.33 126.69"/>
        <polygon class="cls-2" points="73.3 126.69 47.6 219.65 47.6 205.31 69.33 126.69 73.3 126.69"/>
        <polygon class="cls-2" points="77.26 126.69 50.79 222.43 47.6 222.43 47.6 219.65 73.3 126.69 77.26 126.69"/>
        <polygon class="cls-2" points="81.22 126.69 54.75 222.43 50.79 222.43 77.26 126.69 81.22 126.69"/>
        <polygon class="cls-2" points="85.18 126.69 58.72 222.43 54.75 222.43 81.22 126.69 85.18 126.69"/>
        <polygon class="cls-2" points="89.15 126.69 62.68 222.43 58.72 222.43 85.18 126.69 89.15 126.69"/>
        <polygon class="cls-2" points="93.11 126.69 66.64 222.43 62.68 222.43 89.15 126.69 93.11 126.69"/>
        <polygon class="cls-2" points="97.07 126.69 70.6 222.43 66.64 222.43 93.11 126.69 97.07 126.69"/>
        <polygon class="cls-2" points="101.03 126.69 74.57 222.43 70.6 222.43 97.07 126.69 101.03 126.69"/>
        <polygon class="cls-2" points="105 126.69 78.53 222.43 74.57 222.43 101.03 126.69 105 126.69"/>
        <polygon class="cls-2" points="108.96 126.69 82.49 222.43 78.53 222.43 105 126.69 108.96 126.69"/>
        <polygon class="cls-2" points="112.92 126.69 86.45 222.43 82.49 222.43 108.96 126.69 112.92 126.69"/>
        <polygon class="cls-2" points="116.88 126.69 90.42 222.43 86.45 222.43 112.92 126.69 116.88 126.69"/>
        <polygon class="cls-2" points="120.84 126.69 94.38 222.43 90.42 222.43 116.88 126.69 120.84 126.69"/>
        <polygon class="cls-2" points="124.81 126.69 98.34 222.43 94.38 222.43 120.84 126.69 124.81 126.69"/>
        <polygon class="cls-2" points="128.77 126.69 102.3 222.43 98.34 222.43 124.81 126.69 128.77 126.69"/>
        <polygon class="cls-2" points="132.73 126.69 106.26 222.43 102.3 222.43 128.77 126.69 132.73 126.69"/>
        <polygon class="cls-2" points="136.69 126.69 110.23 222.43 106.26 222.43 132.73 126.69 136.69 126.69"/>
        <polygon class="cls-2" points="140.66 126.69 114.19 222.43 110.23 222.43 136.69 126.69 140.66 126.69"/>
        <polygon class="cls-2" points="144.62 126.69 118.15 222.43 114.19 222.43 140.66 126.69 144.62 126.69"/>
        <polygon class="cls-2" points="148.58 126.69 122.11 222.43 118.15 222.43 144.62 126.69 148.58 126.69"/>
        <polygon class="cls-2" points="152.54 126.69 126.08 222.43 122.11 222.43 148.58 126.69 152.54 126.69"/>
        <polygon class="cls-2" points="156.51 126.69 130.04 222.43 126.08 222.43 152.54 126.69 156.51 126.69"/>
        <polygon class="cls-2" points="160.47 126.69 134 222.43 130.04 222.43 156.51 126.69 160.47 126.69"/>
        <polygon class="cls-2" points="161.97 126.69 164.26 127.32 137.96 222.43 134 222.43 160.47 126.69 161.97 126.69"/>
        <polygon class="cls-2" points="164.26 127.32 167.89 128.33 167.89 128.49 141.93 222.43 137.96 222.43 164.26 127.32"/>
        <polygon class="cls-2" points="167.89 142.82 145.89 222.43 141.93 222.43 167.89 128.49 167.89 142.82"/>
        <polygon class="cls-2" points="167.89 157.16 149.85 222.43 145.89 222.43 167.89 142.82 167.89 157.16"/>
        <polygon class="cls-2" points="167.89 171.49 153.81 222.43 149.85 222.43 167.89 157.16 167.89 171.49"/>
        <polygon class="cls-2" points="167.89 185.83 157.78 222.43 153.81 222.43 167.89 171.49 167.89 185.83"/>
        <polygon class="cls-2" points="157.78 222.43 167.89 185.83 167.89 222.43 157.78 222.43"/>
      </g>
    </g>
  </g>
  <g>
    <g>
      <path class="cls-3" d="M264.7,181.68c-1.13,0-2.15-.46-3.07-1.37s-1.37-1.94-1.37-3.06c0-.71,.07-1.34,.22-1.91l49.64-135.63c.43-1.54,1.3-2.92,2.64-4.12,1.33-1.19,3.2-1.8,5.6-1.8h31.27c2.4,0,4.26,.6,5.6,1.8,1.33,1.2,2.22,2.57,2.64,4.12l49.44,135.63c.28,.57,.42,1.2,.42,1.91,0,1.12-.46,2.15-1.37,3.06s-2.01,1.37-3.27,1.37h-25.99c-2.12,0-3.7-.53-4.75-1.58-1.05-1.06-1.73-2.01-2.01-2.85l-8.24-21.55h-56.41l-8.02,21.55c-.29,.85-.92,1.79-1.91,2.85-.98,1.05-2.67,1.58-5.07,1.58h-25.98Zm49.64-56.41h39.3l-19.65-55.77-19.65,55.77Z"/>
      <path class="cls-3" d="M481.87,183.79c-13.24,0-24.65-2.19-34.23-6.55-9.58-4.37-17.01-10.78-22.29-19.23-5.28-8.45-8.21-18.94-8.77-31.48-.14-5.78-.21-11.97-.21-18.6s.07-12.96,.21-19.01c.56-12.26,3.52-22.68,8.88-31.27,5.35-8.59,12.81-15.07,22.39-19.44,9.58-4.37,20.92-6.55,34.02-6.55,9.3,0,17.88,1.16,25.77,3.49,7.89,2.32,14.79,5.7,20.71,10.14,5.92,4.43,10.53,9.79,13.84,16.06,3.3,6.26,5.03,13.34,5.17,21.23,.14,1.27-.25,2.33-1.16,3.17s-2,1.27-3.27,1.27h-28.52c-1.83,0-3.24-.39-4.23-1.16-.98-.78-1.83-2.22-2.54-4.33-1.98-7.47-5.17-12.57-9.61-15.32-4.43-2.74-9.89-4.12-16.37-4.12-7.75,0-13.87,2.15-18.38,6.44-4.5,4.3-6.97,11.44-7.39,21.44-.43,11.55-.43,23.38,0,35.49,.42,10.01,2.88,17.15,7.39,21.44,4.51,4.3,10.64,6.44,18.38,6.44,6.48,0,11.97-1.4,16.48-4.23,4.5-2.81,7.68-7.89,9.51-15.21,.56-2.11,1.37-3.55,2.43-4.33,1.05-.78,2.5-1.16,4.33-1.16h28.52c1.27,0,2.36,.42,3.27,1.26s1.3,1.91,1.16,3.17c-.14,7.89-1.87,14.97-5.17,21.23-3.31,6.26-7.92,11.62-13.84,16.06-5.92,4.43-12.82,7.82-20.71,10.14-7.89,2.33-16.48,3.49-25.77,3.49Z"/>
      <path class="cls-3" d="M574.82,181.68c-1.55,0-2.82-.49-3.81-1.48-.98-.98-1.47-2.25-1.47-3.8V39.08c0-1.55,.49-2.81,1.47-3.81,.98-.98,2.26-1.48,3.81-1.48h27.25c1.55,0,2.85,.5,3.91,1.48,1.06,.99,1.59,2.26,1.59,3.81v50.91h51.97V39.08c0-1.55,.5-2.81,1.48-3.81,.98-.98,2.25-1.48,3.81-1.48h27.25c1.55,0,2.81,.5,3.81,1.48,.98,.99,1.47,2.26,1.47,3.81V176.4c0,1.41-.5,2.64-1.47,3.7-.99,1.05-2.26,1.58-3.81,1.58h-27.25c-1.56,0-2.82-.53-3.81-1.58-.98-1.06-1.48-2.29-1.48-3.7v-52.61h-51.97v52.61c0,1.41-.53,2.64-1.59,3.7-1.05,1.05-2.36,1.58-3.91,1.58h-27.25Z"/>
      <path class="cls-3" d="M718.48,181.68c-1.13,0-2.15-.46-3.07-1.37-.91-.91-1.37-1.94-1.37-3.06,0-.71,.07-1.34,.22-1.91l49.64-135.63c.43-1.54,1.3-2.92,2.64-4.12,1.33-1.19,3.2-1.8,5.6-1.8h31.27c2.4,0,4.26,.6,5.6,1.8,1.33,1.2,2.22,2.57,2.64,4.12l49.44,135.63c.28,.57,.42,1.2,.42,1.91,0,1.12-.46,2.15-1.37,3.06s-2.01,1.37-3.27,1.37h-25.99c-2.12,0-3.7-.53-4.75-1.58-1.05-1.06-1.73-2.01-2.01-2.85l-8.24-21.55h-56.41l-8.02,21.55c-.29,.85-.92,1.79-1.91,2.85-.98,1.05-2.67,1.58-5.07,1.58h-25.98Zm49.64-56.41h39.3l-19.65-55.77-19.65,55.77Z"/>
      <path class="cls-3" d="M883.47,181.68c-1.55,0-2.82-.53-3.81-1.58-.98-1.06-1.47-2.29-1.47-3.7V39.08c0-1.55,.49-2.81,1.47-3.81,.98-.98,2.26-1.48,3.81-1.48h57.46c18.31,0,32.67,4.19,43.1,12.57,10.42,8.38,15.64,20.25,15.64,35.6,0,10-2.4,18.45-7.19,25.35-4.79,6.9-11.13,12.11-19.01,15.63l28.94,51.97c.43,.85,.64,1.62,.64,2.33,0,1.12-.46,2.15-1.37,3.06-.92,.91-1.94,1.37-3.06,1.37h-28.1c-2.67,0-4.64-.67-5.92-2.01-1.26-1.33-2.19-2.57-2.74-3.7l-24.09-46.48h-21.55v46.9c0,1.41-.53,2.64-1.59,3.7-1.05,1.05-2.36,1.58-3.91,1.58h-27.25Zm32.75-82.18h24.3c6.61,0,11.58-1.61,14.89-4.85,3.3-3.24,4.96-7.61,4.96-13.1s-1.58-9.93-4.75-13.31c-3.17-3.38-8.21-5.07-15.1-5.07h-24.3v36.34Z"/>
      <path class="cls-3" d="M1136.98,181.68c-1.13,0-2.15-.46-3.07-1.37s-1.37-1.94-1.37-3.06c0-.71,.07-1.34,.22-1.91l49.64-135.63c.43-1.54,1.3-2.92,2.64-4.12,1.33-1.19,3.2-1.8,5.6-1.8h31.27c2.4,0,4.26,.6,5.6,1.8,1.33,1.2,2.22,2.57,2.64,4.12l49.44,135.63c.28,.57,.42,1.2,.42,1.91,0,1.12-.46,2.15-1.37,3.06s-2.01,1.37-3.27,1.37h-25.99c-2.12,0-3.7-.53-4.75-1.58-1.05-1.06-1.73-2.01-2.01-2.85l-8.24-21.55h-56.41l-8.02,21.55c-.29,.85-.92,1.79-1.91,2.85-.98,1.05-2.67,1.58-5.07,1.58h-25.98Zm49.64-56.41h39.3l-19.65-55.77-19.65,55.77Z"/>
      <path class="cls-2" d="M1061.62,181.68c-1.41,0-2.64-.53-3.7-1.58-1.06-1.06-1.58-2.29-1.58-3.7v-40.24c0-3.4-.85-6.75-2.47-9.74l-46.54-85.86c-.15-.43-.29-.81-.43-1.16-.14-.35-.21-.74-.21-1.16,0-1.12,.46-2.14,1.37-3.06s2.01-1.37,3.28-1.37h26.41c2.11,0,3.77,.53,4.97,1.58,1.2,1.06,2,2.01,2.43,2.85l30.21,54.51,30.42-54.51c.43-.84,1.23-1.79,2.43-2.85,1.2-1.06,2.86-1.58,4.97-1.58h26.41c1.27,0,2.32,.46,3.17,1.37s1.27,1.94,1.27,3.06c0,.43-.04,.81-.11,1.16-.07,.36-.18,.74-.32,1.16l-46.54,85.86c-1.62,2.99-2.47,6.34-2.47,9.74v40.24c0,1.41-.53,2.64-1.58,3.7s-2.36,1.58-3.91,1.58h-27.47Z"/>
    </g>
    <g>
      <path class="cls-3" d="M279.35,273.76c-.53,0-.95-.16-1.26-.47s-.47-.74-.47-1.26v-48.74h-15.62c-.53,0-.95-.16-1.26-.47-.31-.32-.47-.74-.47-1.26v-1.18c0-.58,.16-1.03,.47-1.34,.32-.32,.74-.47,1.26-.47h36.12c.58,0,1.03,.16,1.34,.47s.47,.76,.47,1.34v1.18c0,.53-.16,.95-.47,1.26s-.76,.47-1.34,.47h-15.54v48.74c0,.53-.16,.95-.47,1.26s-.76,.47-1.34,.47h-1.42Z"/>
      <path class="cls-3" d="M353.01,273.76c-.53,0-.95-.16-1.26-.47s-.47-.74-.47-1.26v-51.66c0-.58,.16-1.03,.47-1.34s.74-.47,1.26-.47h30.76c.58,0,1.02,.16,1.34,.47s.47,.76,.47,1.34v1.18c0,.53-.16,.95-.47,1.26s-.76,.47-1.34,.47h-27.53v20.11h25.79c.58,0,1.03,.16,1.34,.47s.47,.76,.47,1.34v1.18c0,.53-.16,.95-.47,1.26s-.76,.47-1.34,.47h-25.79v20.9h28.16c.58,0,1.03,.16,1.34,.47s.47,.76,.47,1.34v1.18c0,.53-.16,.95-.47,1.26s-.76,.47-1.34,.47h-31.39Z"/>
      <path class="cls-3" d="M457.9,274.54c-4.78,0-8.69-.93-11.71-2.8-3.02-1.87-5.27-4.4-6.74-7.61-1.47-3.21-2.29-6.86-2.44-10.96-.05-2.16-.08-4.47-.08-6.94s.03-4.84,.08-7.1c.16-4.1,.97-7.77,2.44-11,1.47-3.23,3.72-5.77,6.74-7.61,3.02-1.84,6.93-2.76,11.71-2.76,3.73,0,6.91,.53,9.54,1.58,2.63,1.05,4.77,2.43,6.43,4.14,1.66,1.71,2.89,3.55,3.71,5.52,.82,1.97,1.27,3.9,1.38,5.8,.05,.47-.09,.86-.43,1.14-.34,.29-.75,.43-1.22,.43h-1.58c-.42,0-.79-.12-1.1-.35s-.53-.67-.63-1.3c-1-4.68-2.88-7.89-5.64-9.62-2.76-1.74-6.24-2.6-10.45-2.6-4.78,0-8.58,1.35-11.4,4.06-2.81,2.71-4.33,7.03-4.53,12.97-.16,4.31-.16,8.73,0,13.25,.21,5.94,1.72,10.27,4.53,12.97,2.81,2.71,6.61,4.06,11.4,4.06,4.21,0,7.69-.87,10.45-2.6,2.76-1.73,4.64-4.94,5.64-9.62,.11-.63,.32-1.06,.63-1.3,.32-.24,.68-.35,1.1-.35h1.58c.47,0,.88,.15,1.22,.43,.34,.29,.49,.67,.43,1.14-.11,1.89-.57,3.82-1.38,5.8-.82,1.97-2.05,3.81-3.71,5.52-1.66,1.71-3.8,3.09-6.43,4.14-2.63,1.05-5.81,1.58-9.54,1.58Z"/>
      <path class="cls-3" d="M534.09,273.76c-.53,0-.95-.16-1.26-.47s-.47-.74-.47-1.26v-51.66c0-.58,.16-1.03,.47-1.34s.74-.47,1.26-.47h1.42c.58,0,1.03,.16,1.34,.47,.32,.32,.47,.76,.47,1.34v23.03h30.44v-23.03c0-.58,.16-1.03,.47-1.34s.74-.47,1.26-.47h1.42c.58,0,1.03,.16,1.34,.47s.47,.76,.47,1.34v51.66c0,.53-.16,.95-.47,1.26s-.76,.47-1.34,.47h-1.42c-.53,0-.95-.16-1.26-.47s-.47-.74-.47-1.26v-23.9h-30.44v23.9c0,.53-.16,.95-.47,1.26-.31,.32-.76,.47-1.34,.47h-1.42Z"/>
      <path class="cls-3" d="M631.1,273.76c-.53,0-.95-.16-1.26-.47s-.47-.74-.47-1.26v-51.66c0-.58,.16-1.03,.47-1.34s.74-.47,1.26-.47h1.66c.52,0,.92,.13,1.18,.39,.26,.26,.42,.45,.47,.55l29.1,44.48v-43.61c0-.58,.16-1.03,.47-1.34s.74-.47,1.26-.47h1.42c.58,0,1.03,.16,1.34,.47s.47,.76,.47,1.34v51.58c0,.53-.16,.96-.47,1.3-.32,.34-.74,.51-1.26,.51h-1.73c-.53,0-.91-.13-1.14-.39-.24-.26-.41-.45-.51-.55l-29.02-44.32v43.54c0,.53-.16,.95-.47,1.26-.31,.32-.76,.47-1.34,.47h-1.42Z"/>
      <path class="cls-3" d="M743.8,274.54c-4.36,0-8.07-.78-11.12-2.33-3.05-1.55-5.39-3.94-7.02-7.18-1.63-3.23-2.52-7.32-2.68-12.26-.05-2.37-.08-4.57-.08-6.62s.03-4.26,.08-6.62c.16-4.89,1.1-8.95,2.84-12.19,1.74-3.23,4.14-5.64,7.22-7.22,3.08-1.58,6.66-2.37,10.76-2.37s7.69,.79,10.77,2.37c3.08,1.58,5.49,3.98,7.26,7.22,1.76,3.23,2.69,7.3,2.8,12.19,.11,2.37,.16,4.57,.16,6.62s-.05,4.26-.16,6.62c-.11,4.94-.99,9.03-2.64,12.26-1.66,3.23-4.01,5.63-7.06,7.18-3.05,1.55-6.76,2.33-11.12,2.33Zm0-4.73c4.52,0,8.24-1.37,11.16-4.1,2.92-2.73,4.48-7.18,4.69-13.33,.11-2.37,.16-4.44,.16-6.23s-.05-3.86-.16-6.23c-.11-4.1-.86-7.44-2.25-10.02-1.39-2.58-3.26-4.46-5.6-5.64-2.34-1.18-5.01-1.77-8.01-1.77s-5.59,.59-7.93,1.77c-2.34,1.18-4.21,3.06-5.6,5.64-1.39,2.58-2.17,5.91-2.33,10.02-.05,2.37-.08,4.44-.08,6.23s.03,3.86,.08,6.23c.21,6.15,1.79,10.6,4.73,13.33,2.94,2.73,6.65,4.1,11.12,4.1Z"/>
      <path class="cls-3" d="M820.86,273.76c-.53,0-.95-.16-1.26-.47s-.47-.74-.47-1.26v-51.74c0-.52,.16-.95,.47-1.26s.74-.47,1.26-.47h1.5c.52,0,.95,.16,1.26,.47,.32,.32,.47,.74,.47,1.26v48.74h27.21c.58,0,1.02,.16,1.34,.47s.47,.76,.47,1.34v1.18c0,.53-.16,.95-.47,1.26s-.76,.47-1.34,.47h-30.44Z"/>
      <path class="cls-3" d="M921.96,274.54c-4.36,0-8.07-.78-11.12-2.33-3.05-1.55-5.39-3.94-7.02-7.18-1.63-3.23-2.52-7.32-2.68-12.26-.05-2.37-.08-4.57-.08-6.62s.03-4.26,.08-6.62c.16-4.89,1.1-8.95,2.84-12.19,1.74-3.23,4.14-5.64,7.22-7.22,3.08-1.58,6.66-2.37,10.76-2.37s7.69,.79,10.77,2.37c3.08,1.58,5.49,3.98,7.26,7.22,1.76,3.23,2.69,7.3,2.8,12.19,.11,2.37,.16,4.57,.16,6.62s-.05,4.26-.16,6.62c-.11,4.94-.99,9.03-2.64,12.26-1.66,3.23-4.01,5.63-7.06,7.18-3.05,1.55-6.76,2.33-11.12,2.33Zm0-4.73c4.52,0,8.24-1.37,11.16-4.1,2.92-2.73,4.48-7.18,4.69-13.33,.11-2.37,.16-4.44,.16-6.23s-.05-3.86-.16-6.23c-.11-4.1-.86-7.44-2.25-10.02-1.39-2.58-3.26-4.46-5.6-5.64-2.34-1.18-5.01-1.77-8.01-1.77s-5.59,.59-7.93,1.77c-2.34,1.18-4.21,3.06-5.6,5.64-1.39,2.58-2.17,5.91-2.33,10.02-.05,2.37-.08,4.44-.08,6.23s.03,3.86,.08,6.23c.21,6.15,1.79,10.6,4.73,13.33,2.94,2.73,6.65,4.1,11.12,4.1Z"/>
      <path class="cls-3" d="M1016.21,274.54c-4.52,0-8.32-.88-11.4-2.64-3.08-1.76-5.42-4.22-7.02-7.37s-2.48-6.78-2.64-10.88c-.05-2.37-.08-4.86-.08-7.49s.03-5.13,.08-7.49c.16-4.15,1.04-7.79,2.64-10.92,1.6-3.13,3.96-5.57,7.06-7.33,3.1-1.76,6.89-2.64,11.36-2.64,3.63,0,6.73,.54,9.31,1.62,2.58,1.08,4.68,2.42,6.31,4.02,1.63,1.6,2.84,3.22,3.63,4.85,.79,1.63,1.21,3,1.26,4.1,.05,.47-.08,.86-.39,1.14-.32,.29-.74,.43-1.26,.43h-1.73c-.47,0-.82-.12-1.03-.35-.21-.24-.42-.64-.63-1.22-.53-1.63-1.41-3.19-2.64-4.69-1.24-1.5-2.89-2.73-4.97-3.71-2.08-.97-4.69-1.46-7.85-1.46-4.68,0-8.48,1.28-11.4,3.82-2.92,2.55-4.48,6.8-4.69,12.74-.16,4.73-.16,9.46,0,14.2,.21,5.89,1.77,10.12,4.69,12.7,2.92,2.58,6.72,3.86,11.4,3.86,3.1,0,5.89-.59,8.36-1.77,2.47-1.18,4.42-3,5.84-5.44,1.42-2.44,2.13-5.56,2.13-9.35v-4.02h-13.72c-.53,0-.95-.17-1.26-.51-.32-.34-.47-.78-.47-1.3v-1.1c0-.58,.16-1.03,.47-1.34s.74-.47,1.26-.47h16.88c.58,0,1.03,.16,1.34,.47s.47,.76,.47,1.34v6.94c0,4.21-.83,7.91-2.48,11.12-1.66,3.21-4.07,5.71-7.26,7.49-3.18,1.79-7.03,2.68-11.55,2.68Z"/>
      <path class="cls-3" d="M1093.19,273.76c-.53,0-.95-.16-1.26-.47s-.47-.74-.47-1.26v-51.74c0-.52,.16-.95,.47-1.26s.74-.47,1.26-.47h1.5c.52,0,.95,.16,1.26,.47,.32,.32,.47,.74,.47,1.26v51.74c0,.53-.16,.95-.47,1.26-.31,.32-.74,.47-1.26,.47h-1.5Z"/>
      <path class="cls-3" d="M1154.78,273.76c-.53,0-.95-.16-1.26-.47s-.47-.74-.47-1.26v-51.66c0-.58,.16-1.03,.47-1.34s.74-.47,1.26-.47h30.76c.58,0,1.02,.16,1.34,.47s.47,.76,.47,1.34v1.18c0,.53-.16,.95-.47,1.26s-.76,.47-1.34,.47h-27.53v20.11h25.79c.58,0,1.03,.16,1.34,.47s.47,.76,.47,1.34v1.18c0,.53-.16,.95-.47,1.26s-.76,.47-1.34,.47h-25.79v20.9h28.16c.58,0,1.03,.16,1.34,.47s.47,.76,.47,1.34v1.18c0,.53-.16,.95-.47,1.26s-.76,.47-1.34,.47h-31.39Z"/>
      <path class="cls-3" d="M1258.1,274.54c-4.26,0-7.87-.68-10.84-2.05-2.97-1.37-5.24-3.13-6.82-5.28-1.58-2.16-2.42-4.44-2.52-6.86,0-.42,.16-.79,.47-1.1s.71-.47,1.18-.47h1.58c.52,0,.93,.16,1.22,.47,.29,.32,.46,.68,.51,1.1,.21,1.47,.87,2.93,1.97,4.38,1.1,1.45,2.73,2.66,4.89,3.63,2.16,.97,4.94,1.46,8.36,1.46,5.15,0,8.91-.93,11.28-2.8,2.37-1.87,3.55-4.38,3.55-7.53,0-2.1-.62-3.8-1.85-5.09-1.24-1.29-3.11-2.44-5.64-3.47-2.52-1.03-5.76-2.17-9.7-3.43-3.73-1.21-6.81-2.46-9.23-3.75-2.42-1.29-4.19-2.85-5.32-4.69-1.13-1.84-1.7-4.21-1.7-7.1,0-2.68,.71-5.09,2.13-7.22,1.42-2.13,3.48-3.83,6.19-5.09,2.71-1.26,6.01-1.89,9.9-1.89,3.1,0,5.81,.42,8.12,1.26,2.31,.84,4.23,1.96,5.76,3.35,1.52,1.39,2.68,2.89,3.47,4.5,.79,1.6,1.21,3.17,1.26,4.69,0,.37-.13,.72-.39,1.06-.26,.34-.68,.51-1.26,.51h-1.58c-.26,0-.59-.1-.99-.32-.39-.21-.64-.63-.75-1.26-.32-2.63-1.7-4.8-4.14-6.51-2.45-1.71-5.61-2.56-9.5-2.56s-7.07,.76-9.54,2.29c-2.47,1.53-3.71,3.92-3.71,7.18,0,2.1,.55,3.82,1.66,5.17,1.1,1.34,2.84,2.52,5.21,3.55,2.37,1.03,5.41,2.14,9.15,3.35,3.94,1.26,7.2,2.52,9.78,3.79,2.58,1.26,4.5,2.8,5.76,4.61,1.26,1.81,1.89,4.17,1.89,7.06,0,3.21-.8,5.93-2.41,8.16-1.6,2.24-3.88,3.94-6.82,5.13-2.95,1.18-6.47,1.77-10.57,1.77Z"/>
    </g>
  </g>
</svg>